<svg id="Layer_1" data-name="Layer 1" xmlns="http://www.w3.org/2000/svg" viewBox="0 0 979.48 1084"><defs><style>.cls-1{fill:none;stroke:#2727c9;stroke-linecap:round;stroke-miterlimit:10;stroke-width:4px;}.cls-2{fill:#eaeaea;}</style></defs><title>PacmanBoard</title><polyline class="cls-1" points="524.58 437.48 611.68 437.48 611.68 576.84 367.8 576.84 367.8 437.48 454.9 437.48"/><polyline class="cls-1" points="524.58 454.9 594.26 454.9 594.26 559.42 385.22 559.42 385.22 454.9 454.9 454.9"/><rect class="cls-2" x="457.74" y="441" width="64" height="10"/><rect class="cls-1" x="263.29" y="542" width="34.84" height="139.35" rx="17.42" ry="17.42"/><rect class="cls-1" x="263.29" y="751.03" width="139.35" height="34.84" rx="17.42" ry="17.42"/><path class="cls-1" d="M663.87,766.45V871a17.42,17.42,0,0,1-17.42,17.42h0A17.42,17.42,0,0,1,629,871V801.29a17.42,17.42,0,0,0-17.42-17.42H576.77a17.42,17.42,0,0,1-17.42-17.42h0A17.42,17.42,0,0,1,576.77,749h69.68A17.42,17.42,0,0,1,663.87,766.45Z" transform="translate(-470.26 2)"/><path class="cls-1" d="M872.9,975.48h0a17.42,17.42,0,0,1-17.42,17.42H576.77a17.42,17.42,0,0,1-17.42-17.42h0a17.42,17.42,0,0,1,17.42-17.42H716.13a17.42,17.42,0,0,0,17.42-17.42V871A17.42,17.42,0,0,1,751,853.55h0A17.42,17.42,0,0,1,768.39,871v69.67a17.42,17.42,0,0,0,17.42,17.42h69.67A17.42,17.42,0,0,1,872.9,975.48Z" transform="translate(-470.26 2)"/><path class="cls-1" d="M1081.94,871h0a17.42,17.42,0,0,1-17.42,17.42H994.84a17.42,17.42,0,0,0-17.42,17.42v69.67A17.42,17.42,0,0,1,960,992.9h0a17.42,17.42,0,0,1-17.42-17.42V905.81a17.42,17.42,0,0,0-17.42-17.42H855.48A17.42,17.42,0,0,1,838.06,871h0a17.42,17.42,0,0,1,17.42-17.42h209A17.42,17.42,0,0,1,1081.94,871Z" transform="translate(-470.26 2)"/><path class="cls-1" d="M1360.65,975.48h0a17.42,17.42,0,0,1-17.42,17.42H1064.52a17.42,17.42,0,0,1-17.42-17.42h0a17.42,17.42,0,0,1,17.42-17.42h69.67a17.42,17.42,0,0,0,17.42-17.42V871A17.42,17.42,0,0,1,1169,853.55h0A17.42,17.42,0,0,1,1186.45,871v69.67a17.42,17.42,0,0,0,17.42,17.42h139.36A17.42,17.42,0,0,1,1360.65,975.48Z" transform="translate(-470.26 2)"/><path class="cls-1" d="M1360.65,766.45h0a17.42,17.42,0,0,1-17.42,17.42h-34.84A17.42,17.42,0,0,0,1291,801.29V871a17.42,17.42,0,0,1-17.42,17.42h0A17.42,17.42,0,0,1,1256.13,871V766.45A17.42,17.42,0,0,1,1273.55,749h69.68A17.42,17.42,0,0,1,1360.65,766.45Z" transform="translate(-470.26 2)"/><rect class="cls-1" x="576.84" y="751.03" width="139.35" height="34.84" rx="17.42" ry="17.42"/><path class="cls-1" d="M1081.94,661.93h0a17.42,17.42,0,0,1-17.42,17.42H994.83a17.42,17.42,0,0,0-17.41,17.41v69.7A17.42,17.42,0,0,1,960,783.87h0a17.42,17.42,0,0,1-17.42-17.41v-69.7a17.42,17.42,0,0,0-17.41-17.41h-69.7a17.42,17.42,0,0,1-17.41-17.42h0a17.42,17.42,0,0,1,17.41-17.41h209A17.42,17.42,0,0,1,1081.94,661.93Z" transform="translate(-470.26 2)"/><rect class="cls-1" x="681.35" y="542" width="34.84" height="139.35" rx="17.42" ry="17.42"/><path class="cls-1" d="M1186.45,243.87v209A17.42,17.42,0,0,1,1169,470.32h0a17.42,17.42,0,0,1-17.42-17.42V383.23a17.42,17.42,0,0,0-17.42-17.42h-69.67a17.42,17.42,0,0,1-17.42-17.42h0A17.42,17.42,0,0,1,1064.52,331h69.67a17.42,17.42,0,0,0,17.42-17.42V243.87A17.42,17.42,0,0,1,1169,226.45h0A17.42,17.42,0,0,1,1186.45,243.87Z" transform="translate(-470.26 2)"/><rect class="cls-1" x="785.87" y="228.45" width="104.52" height="34.84" rx="17.42" ry="17.42"/><rect class="cls-1" x="785.87" y="89.1" width="104.52" height="69.68" rx="18.14" ry="18.14"/><rect class="cls-1" x="576.84" y="89.1" width="139.35" height="69.68" rx="18.18" ry="18.18"/><path class="cls-1" d="M1081.94,243.87h0a17.42,17.42,0,0,1-17.42,17.42H994.84a17.42,17.42,0,0,0-17.42,17.42v69.68A17.42,17.42,0,0,1,960,365.81h0a17.42,17.42,0,0,1-17.42-17.42V278.71a17.42,17.42,0,0,0-17.42-17.42H855.48a17.42,17.42,0,0,1-17.42-17.42h0a17.42,17.42,0,0,1,17.42-17.42h209A17.42,17.42,0,0,1,1081.94,243.87Z" transform="translate(-470.26 2)"/><rect class="cls-1" x="263.29" y="89.1" width="139.35" height="69.68" rx="18.18" ry="18.18"/><rect class="cls-1" x="89.09" y="89.1" width="104.52" height="69.68" rx="18.51" ry="18.51"/><rect class="cls-1" x="89.09" y="228.45" width="104.52" height="34.84" rx="17.42" ry="17.42"/><path class="cls-1" d="M872.9,348.39h0a17.42,17.42,0,0,1-17.42,17.42H785.81a17.42,17.42,0,0,0-17.42,17.42V452.9A17.42,17.42,0,0,1,751,470.32h0a17.42,17.42,0,0,1-17.42-17.42v-209A17.42,17.42,0,0,1,751,226.45h0a17.42,17.42,0,0,1,17.42,17.42v69.68A17.42,17.42,0,0,0,785.81,331h69.67A17.42,17.42,0,0,1,872.9,348.39Z" transform="translate(-470.26 2)"/><path class="cls-1" d="M472.26,557.42H627.94a18.51,18.51,0,0,1,18.51,18.51v67.5a18.51,18.51,0,0,1-18.51,18.51H510.16a37.9,37.9,0,0,0-37.9,37.9v343A37.12,37.12,0,0,0,509.38,1080h901.24a37.12,37.12,0,0,0,37.12-37.12V699.09a37.15,37.15,0,0,0-37.15-37.15H1280.21a6.66,6.66,0,0,1-6.66-6.66v-91.2a6.66,6.66,0,0,1,6.66-6.66h167.53" transform="translate(-470.26 2)"/><path class="cls-1" d="M472.26,540h157.8a33.81,33.81,0,0,1,33.81,33.81v71.73a33.81,33.81,0,0,1-33.81,33.81h-123a17.42,17.42,0,0,0-17.42,17.42V836.13a17.42,17.42,0,0,0,17.42,17.42h34.83A17.42,17.42,0,0,1,559.35,871h0a17.42,17.42,0,0,1-17.42,17.42H507.1a17.42,17.42,0,0,0-17.42,17.42v139.35a17.42,17.42,0,0,0,17.42,17.42h905.8a17.42,17.42,0,0,0,17.42-17.42V905.81a17.42,17.42,0,0,0-17.42-17.42h-34.83A17.42,17.42,0,0,1,1360.65,871h0a17.42,17.42,0,0,1,17.42-17.42h34.83a17.42,17.42,0,0,0,17.42-17.42V696.77a17.42,17.42,0,0,0-17.42-17.42h-123a33.77,33.77,0,0,1-33.77-33.77V573.77A33.77,33.77,0,0,1,1289.9,540h157.84" transform="translate(-470.26 2)"/><path class="cls-1" d="M472.26,470.32H630.17a33.7,33.7,0,0,0,33.7-33.7V364.67a33.7,33.7,0,0,0-33.7-33.7H507.1a17.42,17.42,0,0,1-17.42-17.42V34.84A17.42,17.42,0,0,1,507.1,17.42H925.16a17.42,17.42,0,0,1,17.42,17.42V139.35A17.42,17.42,0,0,0,960,156.77h0a17.42,17.42,0,0,0,17.42-17.42V34.84a17.42,17.42,0,0,1,17.42-17.42H1412.9a17.42,17.42,0,0,1,17.42,17.42V313.55A17.42,17.42,0,0,1,1412.9,331H1289.83a33.7,33.7,0,0,0-33.7,33.7v71.95a33.7,33.7,0,0,0,33.7,33.7h157.91" transform="translate(-470.26 2)"/><path class="cls-1" d="M472.26,452.9H626.38a20.06,20.06,0,0,0,20.07-20.06V368.45a20.06,20.06,0,0,0-20.06-20.06H510.07a37.81,37.81,0,0,1-37.81-37.81V37.81A37.81,37.81,0,0,1,510.07,0h899.86a37.81,37.81,0,0,1,37.81,37.81V310.57a37.82,37.82,0,0,1-37.82,37.82H1293.11A19.57,19.57,0,0,0,1273.55,368v65.37a19.57,19.57,0,0,0,19.57,19.57h154.62" transform="translate(-470.26 2)"/></svg>